<svg width="1403" height="2165"  fill="none" xmlns="http://www.w3.org/2000/svg">
<path d="M509.749 427L485 451.749" stroke="#C76C00" stroke-width="3"/>
<path d="M485 451.749L509.749 476.497" stroke="#C76C00" stroke-width="3"/>
<path d="M837.749 1175L813 1199.75" stroke="#C76C00" stroke-width="3"/>
<path d="M813 1199.75L837.749 1224.5" stroke="#C76C00" stroke-width="3"/>
<path d="M264.749 1654.5L289.498 1629.75" stroke="#C76C00" stroke-width="3"/>
<path d="M289.497 1629.75L264.749 1605" stroke="#C76C00" stroke-width="3"/>
<path d="M2 95.7488L26.7487 120.498" stroke="#C76C00" stroke-width="3"/>
<path d="M26.7487 120.498L51.4975 95.7488" stroke="#C76C00" stroke-width="3"/>
<path d="M51 803.749L75.7487 828.498" stroke="#C76C00" stroke-width="3"/>
<path d="M75.7487 828.497L100.497 803.749" stroke="#C76C00" stroke-width="3"/>
<path d="M1403 1.5H77C49.3857 1.5 27 23.8858 27 51.5V212.5C27 240.114 49.3858 262.5 77 262.5H1290C1317.61 262.5 1340 284.886 1340 312.5V402.921C1340 430.566 1317.57 452.965 1289.92 452.921L126.079 451.079C98.4341 451.035 76 473.434 76 501.079V1000.62C76 1028.19 98.3116 1050.55 125.878 1050.62L847.622 1052.38C875.188 1052.45 897.5 1074.81 897.5 1102.38V1150C897.5 1177.61 875.114 1200 847.5 1200H126C98.3858 1200 76 1222.39 76 1250V1579.5C76 1607.11 98.3858 1629.5 126 1629.5H1290C1317.61 1629.5 1340 1651.89 1340 1679.5V2378" stroke="#C76C00" stroke-width="3"/>
</svg>
